static_grf.mot
version=1
nRows=15
nColumns 19
inDegrees=yes
endheader
time	1_ground_force_vx	1_ground_force_vy	1_ground_force_vz	1_ground_force_px	1_ground_force_py	1_ground_force_pz	1_ground_torque_x	1_ground_torque_y	1_ground_torque_z	2_ground_force_vx	2_ground_force_vy	2_ground_force_vz	2_ground_force_px	2_ground_force_py	2_ground_force_pz	2_ground_torque_x	2_ground_torque_y	2_ground_torque_z
            0.967500	            1.608646	          338.043126	           -8.964197	           -0.245394	            0.006339	           -0.432937	            0.003126	            0.656882	           -0.017419	           -3.892244	          287.777672	           11.070813	           -0.241639	            0.005495	           -0.665166	            0.017774	           -1.314162	           -0.050556
            0.968000	            1.654684	          338.222977	           -8.871826	           -0.245715	            0.006340	           -0.433051	            0.003311	            0.676695	           -0.017750	           -4.126453	          287.776491	           11.164769	           -0.241644	            0.005494	           -0.664903	            0.018144	           -1.265356	           -0.049092
            0.968500	            1.746307	          337.322090	           -8.967630	           -0.245564	            0.006341	           -0.433259	            0.003731	            0.720687	           -0.019159	           -4.036014	          288.697092	           11.308799	           -0.241735	            0.005496	           -0.665505	            0.018628	           -1.332483	           -0.052196
            0.969000	            1.792378	          337.321705	           -8.876032	           -0.245391	            0.006341	           -0.433248	            0.003906	            0.735180	           -0.019345	           -4.080994	          288.145505	           11.025279	           -0.241702	            0.005495	           -0.665250	            0.017636	           -1.245226	           -0.047646
            0.969500	            1.838302	          337.501753	           -8.829517	           -0.245267	            0.006339	           -0.432980	            0.003986	            0.731781	           -0.019144	           -3.937724	          287.408887	           11.163375	           -0.242048	            0.005491	           -0.664493	            0.017421	           -1.271536	           -0.049388
            0.970000	            1.608895	          336.060370	           -9.018556	           -0.245628	            0.006344	           -0.434159	            0.003479	            0.726630	           -0.019500	           -3.984594	          287.408885	           11.116467	           -0.241850	            0.005492	           -0.664361	            0.017872	           -1.289116	           -0.049861
            0.970500	            1.929044	          337.683640	           -9.195819	           -0.245357	            0.006340	           -0.433097	            0.004252	            0.744374	           -0.020271	           -3.982518	          286.855793	           11.302208	           -0.242063	            0.005491	           -0.664493	            0.017827	           -1.284045	           -0.050592
            0.971000	            1.837474	          336.421928	           -9.246858	           -0.245469	            0.006342	           -0.433715	            0.004144	            0.758691	           -0.020853	           -3.988582	          288.513790	           11.120409	           -0.241876	            0.005494	           -0.665138	            0.018249	           -1.320021	           -0.050879
            0.971500	            1.747008	          336.600044	           -8.741442	           -0.245205	            0.006343	           -0.433725	            0.003568	            0.687362	           -0.017851	           -4.172658	          287.592349	           11.117203	           -0.241972	            0.005493	           -0.664857	            0.019107	           -1.316883	           -0.050906
            0.972000	            1.700707	          337.862258	           -8.827630	           -0.245327	            0.006339	           -0.432902	            0.003702	            0.735516	           -0.019217	           -3.935751	          286.856632	           11.114476	           -0.241935	            0.005492	           -0.664429	            0.017551	           -1.279201	           -0.049564
            0.972500	            1.884633	          337.320740	           -8.646980	           -0.245489	            0.006340	           -0.433106	            0.004291	            0.767995	           -0.019687	           -3.890250	          287.225250	           11.068842	           -0.242050	            0.005491	           -0.664514	            0.017830	           -1.316430	           -0.050731
            0.973000	            1.883689	          337.502548	           -9.013055	           -0.245489	            0.006341	           -0.433392	            0.003798	            0.680511	           -0.018173	           -3.892888	          287.961706	           11.118398	           -0.241958	            0.005494	           -0.665077	            0.017940	           -1.327019	           -0.051237
            0.973500	            1.883950	          337.321920	           -8.922116	           -0.245375	            0.006341	           -0.433419	            0.004356	            0.779975	           -0.020630	           -3.937744	          287.409054	           11.116447	           -0.242109	            0.005492	           -0.664622	            0.018076	           -1.319317	           -0.051029
            0.974000	            1.654439	          338.944236	           -8.914590	           -0.245457	            0.006338	           -0.432622	            0.003740	            0.766299	           -0.020154	           -3.984615	          287.409052	           11.069539	           -0.242172	            0.005491	           -0.664620	            0.018577	           -1.339925	           -0.051607
            0.974500	            1.837879	          337.322304	           -9.013714	           -0.245717	            0.006341	           -0.433319	            0.004078	            0.748544	           -0.020002	           -4.030780	          287.224575	           11.115830	           -0.241592	            0.005493	           -0.664578	            0.018218	           -1.298141	           -0.050239
